<?xml version="1.0" encoding="utf-8"?>
<!-- Generator: Adobe Illustrator 19.0.1, SVG Export Plug-In . SVG Version: 6.00 Build 0)  -->
<svg version="1.1" id="Layer_1" xmlns="http://www.w3.org/2000/svg" xmlns:xlink="http://www.w3.org/1999/xlink" x="0px" y="0px"
	 viewBox="0 0 263.7 261.1" style="enable-background:new 0 0 263.7 261.1;" xml:space="preserve">
<g>
	<g>
		<path d="M239.3,10.6H23.5c-6.6,0-12,5.4-12,12v215.8c0,6.6,5.4,12,12,12h215.8c6.6,0,12-5.4,12-12V22.6
			C251.3,16,245.9,10.6,239.3,10.6z M112.4,146.8c0,2.8-0.3,5.9-0.8,9.2c-0.6,3.4-1.8,6.5-3.8,9.4c-2,2.9-4.9,5.4-8.6,7.3
			c-3.8,2-8.8,2.9-15.2,2.9c-3.6,0-7.1-0.5-10.4-1.5s-6.4-2.6-9-4.7c-2.6-2.1-4.8-4.8-6.4-8.2c-1.6-3.3-2.4-7.3-2.4-12.1v-7.4h17
			v3.8c0,2.1,0.2,4,0.5,5.8c0.3,1.8,0.9,3.3,1.7,4.5c0.8,1.2,1.9,2.2,3.3,2.9c1.4,0.7,3.2,1.1,5.5,1.1c2.5,0,4.4-0.4,5.8-1.3
			c1.4-0.9,2.3-2,2.9-3.4c0.6-1.4,1-2.9,1.1-4.6c0.1-1.6,0.2-3.2,0.2-4.7V88.1h18.8V146.8z M201.3,155.3c-2,4.3-4.6,8-7.9,11
			c-3.3,3-7.1,5.4-11.5,7c-4.4,1.6-9.2,2.4-14.5,2.4c-6.6,0-12.5-1.1-17.7-3.4c-5.2-2.3-9.7-5.4-13.3-9.4c-3.6-4-6.4-8.7-8.3-14.1
			c-1.9-5.4-2.9-11.2-2.9-17.5c0-6.4,1-12.3,2.9-17.8c1.9-5.5,4.7-10.3,8.3-14.3c3.6-4.1,8-7.3,13.3-9.6c5.2-2.3,11.1-3.5,17.7-3.5
			c4.7,0,9.2,0.7,13.4,2c4.2,1.4,8,3.3,11.3,5.9c3.3,2.6,6.1,5.8,8.2,9.7c2.2,3.8,3.5,8.2,4.1,13.2h-18.2c-0.3-2.2-1-4.1-2.2-5.9
			c-1.1-1.8-2.5-3.4-4.2-4.7c-1.7-1.4-3.6-2.4-5.7-3.2c-2.1-0.8-4.3-1.1-6.7-1.1c-4.2,0-7.8,0.8-10.8,2.5c-3,1.6-5.4,3.8-7.2,6.6
			c-1.8,2.8-3.2,5.9-4,9.4c-0.8,3.5-1.3,7.2-1.3,10.9c0,3.6,0.4,7.1,1.3,10.5c0.8,3.4,2.2,6.5,4,9.2c1.8,2.7,4.2,4.9,7.2,6.5
			c3,1.6,6.6,2.5,10.8,2.5c5.8,0,10.3-1.8,13.5-5.3c3.2-3.5,5.2-8.2,5.9-13.9h18.2C204.6,146.2,203.3,151,201.3,155.3z"/>
	</g>
</g>
</svg>
